<svg version="1.1" viewBox="0.0 0.0 600.0 371.0" fill="none" stroke="none" stroke-linecap="square" stroke-miterlimit="10" width="600" height="371" xmlns:xlink="http://www.w3.org/1999/xlink" xmlns="http://www.w3.org/2000/svg"><path fill="#a395b3" d="M300.0 114.54625C326.72076 114.54625 351.82663 123.5007 367.53268 138.633L367.53268 163.67549C351.82663 148.5432 326.72076 139.58875 300.0 139.58875Z" fill-rule="nonzero"/><path fill="#e9d5ff" d="M300.0 56.11375C353.44153 56.11375 403.65323 74.02265 435.0654 104.287224L367.53268 138.633C351.82663 123.5007 326.72076 114.54625 300.0 114.54625Z" fill-rule="nonzero"/><path fill="#b28d8d" d="M466.95 198.02126C466.95 210.28455 464.19257 222.47144 458.7789 234.13452L458.7789 209.09203C464.19257 197.42892 466.95 185.24205 466.95 172.97874Z" fill-rule="nonzero"/><path fill="#b28d8d" d="M367.53268 138.633C377.8943 148.61604 383.475 160.63902 383.475 172.97874L383.475 198.02126C383.475 185.68152 377.8943 173.65854 367.53268 163.67549Z" fill-rule="nonzero"/><path fill="#fecaca" d="M435.0654 104.287224C466.47754 134.5518 475.2932 173.51389 458.7789 209.09203L379.38943 191.03539C387.6466 173.2463 383.23877 153.76527 367.53268 138.633Z" fill-rule="nonzero"/><path fill="#b2a861" d="M458.7789 234.13452C453.3652 245.7976 445.3628 256.79156 435.0654 266.71277L435.0654 241.67027C445.3628 231.74905 453.3652 220.75511 458.7789 209.09203Z" fill-rule="nonzero"/><path fill="#fef08a" d="M458.7789 209.09203C453.3652 220.75511 445.3628 231.74905 435.0654 241.67027L367.53268 207.32451C372.6814 202.3639 376.68262 196.86693 379.38943 191.03539Z" fill-rule="nonzero"/><path fill="#6baca0" d="M435.0654 266.71277C392.55258 307.6725 317.1968 324.81168 248.4096 309.16647C179.62244 293.52124 133.05 248.65024 133.05 198.02126L133.05 172.97874C133.05 223.60774 179.62244 268.47876 248.4096 284.12396C317.1968 299.7692 392.55258 282.62997 435.0654 241.67027Z" fill-rule="nonzero"/><path fill="#6baca0" d="M216.525 172.97874C216.525 140.70737 253.89803 114.54625 300.0 114.54625L300.0 139.58875C253.89803 139.58875 216.525 165.74988 216.525 198.02126Z" fill-rule="nonzero"/><path fill="#99f6e4" d="M435.0654 241.67027C388.73215 286.31082 304.10718 302.18347 232.09532 279.74023C160.08345 257.29703 120.30924 202.65411 136.69826 148.68115C153.08727 94.70818 221.1732 56.11375 300.0 56.11375L300.0 114.54625C260.5866 114.54625 226.54364 133.84346 218.34914 160.82996C210.15462 187.81644 230.04173 215.13788 266.04767 226.3595C302.0536 237.5811 344.3661 229.64479 367.53268 207.32451Z" fill-rule="nonzero"/><path fill="#ffffff" d="M19.471874 218.88158L19.471874 210.28783L22.721874 210.28783Q23.565624 210.28783 24.01875 210.36595Q24.659374 210.47533 25.08125 210.7722Q25.51875 211.06908 25.76875 211.60033Q26.034374 212.13158 26.034374 212.7722Q26.034374 213.86595 25.33125 214.63158Q24.64375 215.38158 22.815624 215.38158L20.6125 215.38158L20.6125 218.88158L19.471874 218.88158ZM20.6125 214.38158L22.83125 214.38158Q23.940624 214.38158 24.39375 213.97533Q24.8625 213.55345 24.8625 212.80345Q24.8625 212.2722 24.58125 211.8972Q24.315624 211.50658 23.878124 211.38158Q23.58125 211.30345 22.815624 211.30345L20.6125 211.30345L20.6125 214.38158ZM31.425 218.88158L31.425 217.9597Q30.690624 219.0222 29.440624 219.0222Q28.89375 219.0222 28.409374 218.81908Q27.940624 218.60033 27.70625 218.28783Q27.471874 217.9597 27.378124 217.49095Q27.315624 217.19408 27.315624 216.50658L27.315624 212.66283L28.378124 212.66283L28.378124 216.11595Q28.378124 216.92845 28.440624 217.22533Q28.534374 217.63158 28.846874 217.88158Q29.175 218.11595 29.659374 218.11595Q30.128124 218.11595 30.534374 217.88158Q30.95625 217.63158 31.128124 217.2097Q31.315624 216.78783 31.315624 215.99095L31.315624 212.66283L32.3625 212.66283L32.3625 218.88158L31.425 218.88158ZM35.315624 218.88158L34.33125 218.88158L34.33125 210.28783L35.39375 210.28783L35.39375 213.35033Q36.065624 212.5222 37.096874 212.5222Q37.675 212.5222 38.175 212.75658Q38.690624 212.97533 39.01875 213.3972Q39.3625 213.81908 39.55 214.41283Q39.7375 215.00658 39.7375 215.67845Q39.7375 217.2722 38.940624 218.1472Q38.14375 219.0222 37.05 219.0222Q35.940624 219.0222 35.315624 218.10033L35.315624 218.88158ZM35.3 215.72533Q35.3 216.8347 35.6125 217.3347Q36.1125 218.1472 36.95625 218.1472Q37.64375 218.1472 38.14375 217.55345Q38.659374 216.9597 38.659374 215.75658Q38.659374 214.53783 38.175 213.9597Q37.690624 213.38158 37.003124 213.38158Q36.315624 213.38158 35.8 213.99095Q35.3 214.5847 35.3 215.72533ZM41.315624 218.88158L41.315624 210.28783L42.378124 210.28783L42.378124 218.88158L41.315624 218.88158ZM44.346874 211.50658L44.346874 210.28783L45.409374 210.28783L45.409374 211.50658L44.346874 211.50658ZM44.346874 218.88158L44.346874 212.66283L45.409374 212.66283L45.409374 218.88158L44.346874 218.88158ZM51.409374 216.60033L52.440624 216.74095Q52.26875 217.80345 51.565624 218.41283Q50.8625 219.0222 49.846874 219.0222Q48.565624 219.0222 47.784374 218.19408Q47.01875 217.35033 47.01875 215.78783Q47.01875 214.78783 47.346874 214.03783Q47.690624 213.2722 48.3625 212.8972Q49.05 212.5222 49.8625 212.5222Q50.8625 212.5222 51.503124 213.03783Q52.159374 213.53783 52.346874 214.49095L51.315624 214.6472Q51.175 214.0222 50.8 213.7097Q50.425 213.38158 49.89375 213.38158Q49.096874 213.38158 48.596874 213.9597Q48.096874 214.5222 48.096874 215.75658Q48.096874 217.0222 48.58125 217.5847Q49.065624 218.1472 49.83125 218.1472Q50.45625 218.1472 50.8625 217.7722Q51.284374 217.3972 51.409374 216.60033ZM56.096874 216.11595L57.159374 216.0222Q57.2375 216.67845 57.51875 217.0847Q57.8 217.49095 58.378124 217.75658Q58.971874 218.00658 59.70625 218.00658Q60.346874 218.00658 60.846874 217.81908Q61.346874 217.61595 61.58125 217.28783Q61.83125 216.94408 61.83125 216.55345Q61.83125 216.1472 61.596874 215.85033Q61.3625 215.53783 60.83125 215.3347Q60.471874 215.19408 59.284374 214.91283Q58.1125 214.63158 57.64375 214.38158Q57.01875 214.05345 56.721874 213.5847Q56.425 213.10033 56.425 212.50658Q56.425 211.86595 56.784374 211.30345Q57.159374 210.72533 57.8625 210.44408Q58.58125 210.1472 59.440624 210.1472Q60.39375 210.1472 61.128124 210.4597Q61.8625 210.75658 62.253124 211.36595Q62.64375 211.9597 62.675 212.7097L61.58125 212.78783Q61.4875 211.97533 60.971874 211.56908Q60.471874 211.1472 59.4875 211.1472Q58.45625 211.1472 57.9875 211.5222Q57.51875 211.8972 57.51875 212.42845Q57.51875 212.8972 57.846874 213.19408Q58.175 213.49095 59.55 213.80345Q60.940624 214.11595 61.45625 214.35033Q62.20625 214.7097 62.565624 215.24095Q62.925 215.75658 62.925 216.4597Q62.925 217.1472 62.534374 217.75658Q62.14375 218.35033 61.409374 218.69408Q60.675 219.0222 59.753124 219.0222Q58.58125 219.0222 57.784374 218.69408Q57.003124 218.35033 56.55 217.66283Q56.1125 216.97533 56.096874 216.11595ZM68.40938 218.11595Q67.81563 218.61595 67.26875 218.81908Q66.7375 219.0222 66.1125 219.0222Q65.08125 219.0222 64.53438 218.5222Q63.9875 218.0222 63.9875 217.24095Q63.9875 216.78783 64.19063 216.41283Q64.39375 216.0222 64.7375 215.80345Q65.08125 215.56908 65.50313 215.4597Q65.8 215.36595 66.44063 215.28783Q67.70625 215.1472 68.31563 214.92845Q68.31563 214.7097 68.31563 214.66283Q68.31563 214.00658 68.01875 213.74095Q67.6125 213.3972 66.81563 213.3972Q66.08125 213.3972 65.72188 213.66283Q65.3625 213.91283 65.19063 214.56908L64.15938 214.42845Q64.3 213.7722 64.62813 213.36595Q64.95625 212.9597 65.56563 212.74095Q66.175 212.5222 66.97188 212.5222Q67.76875 212.5222 68.26875 212.7097Q68.76875 212.8972 69.00313 213.17845Q69.2375 213.4597 69.33125 213.8972Q69.37813 214.16283 69.37813 214.86595L69.37813 216.2722Q69.37813 217.74095 69.44063 218.13158Q69.51875 218.5222 69.72188 218.88158L68.6125 218.88158Q68.45625 218.55345 68.40938 218.11595ZM68.31563 215.75658Q67.7375 215.99095 66.59688 216.16283Q65.94063 216.25658 65.675 216.38158Q65.40938 216.49095 65.25313 216.7097Q65.1125 216.92845 65.1125 217.2097Q65.1125 217.63158 65.425 217.91283Q65.75313 218.19408 66.3625 218.19408Q66.97188 218.19408 67.44063 217.92845Q67.925 217.66283 68.14375 217.19408Q68.31563 216.8347 68.31563 216.1472L68.31563 215.75658ZM71.31563 218.88158L71.31563 210.28783L72.37813 210.28783L72.37813 218.88158L71.31563 218.88158ZM78.59688 216.88158L79.69063 217.00658Q79.44063 217.9597 78.7375 218.49095Q78.03438 219.0222 76.95625 219.0222Q75.59688 219.0222 74.78438 218.17845Q73.9875 217.3347 73.9875 215.81908Q73.9875 214.25658 74.8 213.3972Q75.6125 212.5222 76.89375 212.5222Q78.14375 212.5222 78.925 213.36595Q79.72188 214.2097 79.72188 215.75658Q79.72188 215.85033 79.72188 216.03783L75.08125 216.03783Q75.14375 217.06908 75.65938 217.61595Q76.175 218.1472 76.95625 218.1472Q77.53438 218.1472 77.94063 217.85033Q78.3625 217.53783 78.59688 216.88158ZM75.14375 215.17845L78.6125 215.17845Q78.55 214.38158 78.22188 213.99095Q77.70625 213.38158 76.90938 213.38158Q76.175 213.38158 75.675 213.86595Q75.19063 214.35033 75.14375 215.17845Z" fill-rule="nonzero"/><path fill="#7a94ab" d="M24.51875 229.3972L23.471874 229.47533Q23.33125 228.85033 23.08125 228.56908Q22.64375 228.11595 22.01875 228.11595Q21.51875 228.11595 21.128124 228.3972Q20.64375 228.7722 20.346874 229.47533Q20.065624 230.16283 20.05 231.44408Q20.425 230.86595 20.971874 230.5847Q21.534374 230.30345 22.14375 230.30345Q23.190624 230.30345 23.925 231.0847Q24.675 231.86595 24.675 233.0847Q24.675 233.8972 24.315624 234.60033Q23.971874 235.28783 23.3625 235.66283Q22.753124 236.0222 21.9875 236.0222Q20.659374 236.0222 19.83125 235.05345Q19.003124 234.0847 19.003124 231.86595Q19.003124 229.36595 19.925 228.24095Q20.721874 227.25658 22.08125 227.25658Q23.096874 227.25658 23.7375 227.8347Q24.39375 228.3972 24.51875 229.3972ZM20.221874 233.10033Q20.221874 233.6472 20.440624 234.1472Q20.675 234.63158 21.08125 234.8972Q21.503124 235.16283 21.971874 235.16283Q22.628124 235.16283 23.1125 234.63158Q23.596874 234.0847 23.596874 233.16283Q23.596874 232.2722 23.1125 231.75658Q22.64375 231.24095 21.925 231.24095Q21.20625 231.24095 20.70625 231.75658Q20.221874 232.2722 20.221874 233.10033ZM26.05 233.63158L27.159374 233.53783Q27.284374 234.35033 27.721874 234.75658Q28.175 235.16283 28.815624 235.16283Q29.565624 235.16283 30.096874 234.5847Q30.628124 234.00658 30.628124 233.06908Q30.628124 232.16283 30.1125 231.6472Q29.6125 231.11595 28.784374 231.11595Q28.284374 231.11595 27.8625 231.35033Q27.45625 231.5847 27.221874 231.94408L26.2375 231.81908L27.065624 227.41283L31.346874 227.41283L31.346874 228.41283L27.909374 228.41283L27.45625 230.72533Q28.221874 230.17845 29.065624 230.17845Q30.190624 230.17845 30.95625 230.9597Q31.7375 231.74095 31.7375 232.97533Q31.7375 234.13158 31.065624 234.99095Q30.2375 236.0222 28.815624 236.0222Q27.64375 236.0222 26.89375 235.36595Q26.159374 234.7097 26.05 233.63158ZM33.6125 235.88158L33.6125 234.67845L34.815624 234.67845L34.815624 235.88158Q34.815624 236.53783 34.58125 236.94408Q34.346874 237.36595 33.846874 237.5847L33.55 237.13158Q33.878124 236.99095 34.034374 236.69408Q34.190624 236.41283 34.221874 235.88158L33.6125 235.88158ZM36.05 231.6472Q36.05 230.11595 36.3625 229.19408Q36.675 228.25658 37.284374 227.75658Q37.909374 227.25658 38.846874 227.25658Q39.534374 227.25658 40.05 227.53783Q40.58125 227.81908 40.925 228.35033Q41.26875 228.86595 41.45625 229.61595Q41.64375 230.36595 41.64375 231.6472Q41.64375 233.16283 41.33125 234.0847Q41.034374 235.00658 40.409374 235.5222Q39.8 236.0222 38.846874 236.0222Q37.6125 236.0222 36.89375 235.13158Q36.05 234.06908 36.05 231.6472ZM37.128124 231.6472Q37.128124 233.75658 37.628124 234.4597Q38.128124 235.16283 38.846874 235.16283Q39.58125 235.16283 40.065624 234.4597Q40.565624 233.75658 40.565624 231.6472Q40.565624 229.5222 40.065624 228.8347Q39.58125 228.13158 38.83125 228.13158Q38.1125 228.13158 37.675 228.74095Q37.128124 229.5222 37.128124 231.6472ZM43.253124 229.35033Q43.253124 228.42845 43.70625 227.78783Q44.175 227.1472 45.05 227.1472Q45.8625 227.1472 46.39375 227.72533Q46.925 228.30345 46.925 229.41283Q46.925 230.50658 46.378124 231.10033Q45.846874 231.67845 45.065624 231.67845Q44.284374 231.67845 43.76875 231.10033Q43.253124 230.5222 43.253124 229.35033ZM45.08125 227.86595Q44.690624 227.86595 44.425 228.2097Q44.175 228.55345 44.175 229.4597Q44.175 230.28783 44.425 230.63158Q44.690624 230.9597 45.08125 230.9597Q45.4875 230.9597 45.7375 230.61595Q46.003124 230.2722 46.003124 229.38158Q46.003124 228.53783 45.7375 228.2097Q45.471874 227.86595 45.08125 227.86595ZM45.08125 236.19408L49.784374 227.1472L50.64375 227.1472L45.95625 236.19408L45.08125 236.19408ZM48.8 233.86595Q48.8 232.94408 49.253124 232.30345Q49.721874 231.66283 50.6125 231.66283Q51.425 231.66283 51.95625 232.24095Q52.4875 232.80345 52.4875 233.92845Q52.4875 235.0222 51.940624 235.61595Q51.409374 236.19408 50.6125 236.19408Q49.846874 236.19408 49.315624 235.61595Q48.8 235.03783 48.8 233.86595ZM50.64375 232.38158Q50.2375 232.38158 49.971874 232.72533Q49.721874 233.06908 49.721874 233.97533Q49.721874 234.78783 49.9875 235.13158Q50.253124 235.47533 50.64375 235.47533Q51.034374 235.47533 51.3 235.13158Q51.565624 234.78783 51.565624 233.88158Q51.565624 233.05345 51.3 232.72533Q51.034374 232.38158 50.64375 232.38158Z" fill-rule="nonzero"/><path stroke="#aabbca" stroke-width="1.0" stroke-linecap="butt" d="M18.55 223.38158L127.05 223.38158L158.68414 223.38158" fill-rule="nonzero"/><path fill="#7a94ab" d="M160.68414 223.38158C160.68414 222.277 159.78871 221.38158 158.68414 221.38158C157.57957 221.38158 156.68414 222.277 156.68414 223.38158C156.68414 224.48615 157.57957 225.38158 158.68414 225.38158C159.78871 225.38158 160.68414 224.48615 160.68414 223.38158" fill-rule="nonzero"/><path fill="#ffffff" d="M529.34064 69.55765L529.34064 60.963898L531.0594 60.963898L533.09064 67.04202Q533.3719 67.9014 533.4969 68.32327Q533.6375 67.85452 533.95 66.94827L536.0125 60.963898L537.54376 60.963898L537.54376 69.55765L536.45 69.55765L536.45 62.370148L533.95 69.55765L532.91876 69.55765L530.4344 62.245148L530.4344 69.55765L529.34064 69.55765ZM542.3094 68.79202Q541.71564 69.29202 541.16876 69.49515Q540.6375 69.69827 540.0125 69.69827Q538.98126 69.69827 538.4344 69.19827Q537.8875 68.69827 537.8875 67.91702Q537.8875 67.4639 538.09064 67.0889Q538.29376 66.69827 538.6375 66.47952Q538.98126 66.24515 539.40314 66.13577Q539.7 66.04202 540.34064 65.9639Q541.60626 65.82327 542.21564 65.60452Q542.21564 65.38577 542.21564 65.3389Q542.21564 64.68265 541.91876 64.41702Q541.5125 64.07327 540.71564 64.07327Q539.98126 64.07327 539.6219 64.3389Q539.2625 64.5889 539.09064 65.24515L538.0594 65.10452Q538.2 64.44827 538.52814 64.04202Q538.85626 63.635773 539.46564 63.417023Q540.075 63.198273 540.8719 63.198273Q541.66876 63.198273 542.16876 63.385773Q542.66876 63.573273 542.90314 63.854523Q543.1375 64.13577 543.23126 64.57327Q543.27814 64.8389 543.27814 65.54202L543.27814 66.94827Q543.27814 68.41702 543.34064 68.80765Q543.41876 69.19827 543.6219 69.55765L542.5125 69.55765Q542.35626 69.22952 542.3094 68.79202ZM542.21564 66.43265Q541.6375 66.66702 540.4969 66.8389Q539.84064 66.93265 539.575 67.05765Q539.3094 67.16702 539.15314 67.38577Q539.0125 67.60452 539.0125 67.88577Q539.0125 68.30765 539.325 68.5889Q539.65314 68.87015 540.2625 68.87015Q540.8719 68.87015 541.34064 68.60452Q541.825 68.3389 542.04376 67.87015Q542.21564 67.51077 542.21564 66.82327L542.21564 66.43265ZM545.23126 69.55765L545.23126 63.338898L546.1844 63.338898L546.1844 64.2764Q546.54376 63.620148 546.84064 63.417023Q547.15314 63.198273 547.52814 63.198273Q548.0594 63.198273 548.60626 63.526398L548.2469 64.51077Q547.85626 64.2764 547.48126 64.2764Q547.1219 64.2764 546.84064 64.49515Q546.575 64.69827 546.46564 65.07327Q546.27814 65.63577 546.27814 66.29202L546.27814 69.55765L545.23126 69.55765ZM549.2469 69.55765L549.2469 60.963898L550.3094 60.963898L550.3094 65.87015L552.79376 63.338898L554.16876 63.338898L551.77814 65.63577L554.40314 69.55765L553.10626 69.55765L551.04376 66.37015L550.3094 67.0889L550.3094 69.55765L549.2469 69.55765ZM559.4969 67.55765L560.59064 67.68265Q560.34064 68.63577 559.6375 69.16702Q558.9344 69.69827 557.85626 69.69827Q556.4969 69.69827 555.6844 68.85452Q554.8875 68.01077 554.8875 66.49515Q554.8875 64.93265 555.7 64.07327Q556.5125 63.198273 557.79376 63.198273Q559.04376 63.198273 559.825 64.04202Q560.6219 64.88577 560.6219 66.43265Q560.6219 66.5264 560.6219 66.7139L555.98126 66.7139Q556.04376 67.74515 556.5594 68.29202Q557.075 68.82327 557.85626 68.82327Q558.4344 68.82327 558.84064 68.5264Q559.2625 68.2139 559.4969 67.55765ZM556.04376 65.85452L559.5125 65.85452Q559.45 65.05765 559.1219 64.66702Q558.60626 64.05765 557.8094 64.05765Q557.075 64.05765 556.575 64.54202Q556.09064 65.0264 556.04376 65.85452ZM564.54376 68.62015L564.7 69.54202Q564.2469 69.63577 563.90314 69.63577Q563.325 69.63577 563.0125 69.4639Q562.7 69.2764 562.5594 68.97952Q562.4344 68.68265 562.4344 67.72952L562.4344 64.1514L561.66876 64.1514L561.66876 63.338898L562.4344 63.338898L562.4344 61.792023L563.48126 61.167023L563.48126 63.338898L564.54376 63.338898L564.54376 64.1514L563.48126 64.1514L563.48126 67.79202Q563.48126 68.24515 563.52814 68.37015Q563.59064 68.49515 563.71564 68.57327Q563.84064 68.6514 564.075 68.6514Q564.2625 68.6514 564.54376 68.62015ZM565.2469 62.182648L565.2469 60.963898L566.3094 60.963898L566.3094 62.182648L565.2469 62.182648ZM565.2469 69.55765L565.2469 63.338898L566.3094 63.338898L566.3094 69.55765L565.2469 69.55765ZM568.2469 69.55765L568.2469 63.338898L569.1844 63.338898L569.1844 64.2139Q569.8719 63.198273 571.16876 63.198273Q571.73126 63.198273 572.2 63.401398Q572.6844 63.604523 572.91876 63.932648Q573.15314 64.26077 573.2469 64.69827Q573.29376 64.99515 573.29376 65.72952L573.29376 69.55765L572.2469 69.55765L572.2469 65.7764Q572.2469 65.12015 572.1219 64.80765Q571.9969 64.49515 571.6844 64.30765Q571.3719 64.10452 570.95 64.10452Q570.27814 64.10452 569.77814 64.54202Q569.29376 64.9639 569.29376 66.1514L569.29376 69.55765L568.2469 69.55765ZM575.04376 70.07327L576.075 70.22952Q576.1375 70.69827 576.4344 70.91702Q576.825 71.2139 577.4969 71.2139Q578.23126 71.2139 578.6219 70.91702Q579.02814 70.62015 579.16876 70.10452Q579.2625 69.7764 579.2469 68.74515Q578.5594 69.55765 577.52814 69.55765Q576.2469 69.55765 575.54376 68.63577Q574.84064 67.69827 574.84064 66.41702Q574.84064 65.5264 575.15314 64.7764Q575.48126 64.01077 576.09064 63.604523Q576.7 63.198273 577.52814 63.198273Q578.6375 63.198273 579.35626 64.0889L579.35626 63.338898L580.325 63.338898L580.325 68.7139Q580.325 70.16702 580.02814 70.7764Q579.73126 71.38577 579.09064 71.72952Q578.45 72.0889 577.5125 72.0889Q576.40314 72.0889 575.71564 71.5889Q575.02814 71.0889 575.04376 70.07327ZM575.91876 66.3389Q575.91876 67.55765 576.40314 68.12015Q576.8875 68.68265 577.6219 68.68265Q578.35626 68.68265 578.84064 68.12015Q579.34064 67.55765 579.34064 66.37015Q579.34064 65.22952 578.825 64.6514Q578.325 64.07327 577.60626 64.07327Q576.90314 64.07327 576.40314 64.6514Q575.91876 65.2139 575.91876 66.3389Z" fill-rule="nonzero"/><path fill="#7a94ab" d="M550.91876 86.55765L549.8719 86.55765L549.8719 79.8389Q549.48126 80.19827 548.85626 80.57327Q548.2469 80.93265 547.7625 81.10452L547.7625 80.0889Q548.6375 79.66702 549.29376 79.0889Q549.96564 78.49515 550.2469 77.93265L550.91876 77.93265L550.91876 86.55765ZM553.95 84.30765L555.0594 84.2139Q555.1844 85.0264 555.6219 85.43265Q556.075 85.8389 556.71564 85.8389Q557.46564 85.8389 557.9969 85.26077Q558.52814 84.68265 558.52814 83.74515Q558.52814 82.8389 558.0125 82.32327Q557.5125 81.79202 556.6844 81.79202Q556.1844 81.79202 555.7625 82.0264Q555.35626 82.26077 555.1219 82.62015L554.1375 82.49515L554.96564 78.0889L559.2469 78.0889L559.2469 79.0889L555.8094 79.0889L555.35626 81.4014Q556.1219 80.85452 556.96564 80.85452Q558.09064 80.85452 558.85626 81.63577Q559.6375 82.41702 559.6375 83.6514Q559.6375 84.80765 558.96564 85.66702Q558.1375 86.69827 556.71564 86.69827Q555.54376 86.69827 554.79376 86.04202Q554.0594 85.38577 553.95 84.30765ZM561.5125 86.55765L561.5125 85.35452L562.71564 85.35452L562.71564 86.55765Q562.71564 87.2139 562.48126 87.62015Q562.2469 88.04202 561.7469 88.26077L561.45 87.80765Q561.77814 87.66702 561.9344 87.37015Q562.09064 87.0889 562.1219 86.55765L561.5125 86.55765ZM563.95 82.32327Q563.95 80.79202 564.2625 79.87015Q564.575 78.93265 565.1844 78.43265Q565.8094 77.93265 566.7469 77.93265Q567.4344 77.93265 567.95 78.2139Q568.48126 78.49515 568.825 79.0264Q569.16876 79.54202 569.35626 80.29202Q569.54376 81.04202 569.54376 82.32327Q569.54376 83.8389 569.23126 84.76077Q568.9344 85.68265 568.3094 86.19827Q567.7 86.69827 566.7469 86.69827Q565.5125 86.69827 564.79376 85.80765Q563.95 84.74515 563.95 82.32327ZM565.02814 82.32327Q565.02814 84.43265 565.52814 85.13577Q566.02814 85.8389 566.7469 85.8389Q567.48126 85.8389 567.96564 85.13577Q568.46564 84.43265 568.46564 82.32327Q568.46564 80.19827 567.96564 79.51077Q567.48126 78.80765 566.73126 78.80765Q566.0125 78.80765 565.575 79.41702Q565.02814 80.19827 565.02814 82.32327ZM571.15314 80.0264Q571.15314 79.10452 571.60626 78.4639Q572.075 77.82327 572.95 77.82327Q573.7625 77.82327 574.29376 78.4014Q574.825 78.97952 574.825 80.0889Q574.825 81.18265 574.27814 81.7764Q573.7469 82.35452 572.96564 82.35452Q572.1844 82.35452 571.66876 81.7764Q571.15314 81.19827 571.15314 80.0264ZM572.98126 78.54202Q572.59064 78.54202 572.325 78.88577Q572.075 79.22952 572.075 80.13577Q572.075 80.9639 572.325 81.30765Q572.59064 81.63577 572.98126 81.63577Q573.3875 81.63577 573.6375 81.29202Q573.90314 80.94827 573.90314 80.05765Q573.90314 79.2139 573.6375 78.88577Q573.3719 78.54202 572.98126 78.54202ZM572.98126 86.87015L577.6844 77.82327L578.54376 77.82327L573.85626 86.87015L572.98126 86.87015ZM576.7 84.54202Q576.7 83.62015 577.15314 82.97952Q577.6219 82.3389 578.5125 82.3389Q579.325 82.3389 579.85626 82.91702Q580.3875 83.47952 580.3875 84.60452Q580.3875 85.69827 579.84064 86.29202Q579.3094 86.87015 578.5125 86.87015Q577.7469 86.87015 577.21564 86.29202Q576.7 85.7139 576.7 84.54202ZM578.54376 83.05765Q578.1375 83.05765 577.8719 83.4014Q577.6219 83.74515 577.6219 84.6514Q577.6219 85.4639 577.8875 85.80765Q578.15314 86.1514 578.54376 86.1514Q578.9344 86.1514 579.2 85.80765Q579.46564 85.4639 579.46564 84.55765Q579.46564 83.72952 579.2 83.4014Q578.9344 83.05765 578.54376 83.05765Z" fill-rule="nonzero"/><path stroke="#aabbca" stroke-width="1.0" stroke-linecap="butt" d="M581.45 74.05765L472.95 74.05765L372.00403 74.05765" fill-rule="nonzero"/><path fill="#7a94ab" d="M374.00403 74.05765C374.00403 72.95308 373.1086 72.05765 372.00403 72.05765C370.89944 72.05765 370.00403 72.95308 370.00403 74.05765C370.00403 75.16222 370.89944 76.05765 372.00403 76.05765C373.1086 76.05765 374.00403 75.16222 374.00403 74.05765" fill-rule="nonzero"/><path fill="#ffffff" d="M552.5594 151.11111L552.5594 143.53299L549.73126 143.53299L549.73126 142.51736L556.54376 142.51736L556.54376 143.53299L553.7 143.53299L553.7 151.11111L552.5594 151.11111ZM561.4969 149.11111L562.59064 149.23611Q562.34064 150.18924 561.6375 150.72049Q560.9344 151.25174 559.85626 151.25174Q558.4969 151.25174 557.6844 150.40799Q556.8875 149.56424 556.8875 148.04861Q556.8875 146.48611 557.7 145.62674Q558.5125 144.75174 559.79376 144.75174Q561.04376 144.75174 561.825 145.59549Q562.6219 146.43924 562.6219 147.98611Q562.6219 148.07986 562.6219 148.26736L557.98126 148.26736Q558.04376 149.29861 558.5594 149.84549Q559.075 150.37674 559.85626 150.37674Q560.4344 150.37674 560.84064 150.07986Q561.2625 149.76736 561.4969 149.11111ZM558.04376 147.40799L561.5125 147.40799Q561.45 146.61111 561.1219 146.22049Q560.60626 145.61111 559.8094 145.61111Q559.075 145.61111 558.575 146.09549Q558.09064 146.57986 558.04376 147.40799ZM568.3094 150.34549Q567.71564 150.84549 567.16876 151.04861Q566.6375 151.25174 566.0125 151.25174Q564.98126 151.25174 564.4344 150.75174Q563.8875 150.25174 563.8875 149.47049Q563.8875 149.01736 564.09064 148.64236Q564.29376 148.25174 564.6375 148.03299Q564.98126 147.79861 565.40314 147.68924Q565.7 147.59549 566.34064 147.51736Q567.60626 147.37674 568.21564 147.15799Q568.21564 146.93924 568.21564 146.89236Q568.21564 146.23611 567.91876 145.97049Q567.5125 145.62674 566.71564 145.62674Q565.98126 145.62674 565.6219 145.89236Q565.2625 146.14236 565.09064 146.79861L564.0594 146.65799Q564.2 146.00174 564.52814 145.59549Q564.85626 145.18924 565.46564 144.97049Q566.075 144.75174 566.8719 144.75174Q567.66876 144.75174 568.16876 144.93924Q568.66876 145.12674 568.90314 145.40799Q569.1375 145.68924 569.23126 146.12674Q569.27814 146.39236 569.27814 147.09549L569.27814 148.50174Q569.27814 149.97049 569.34064 150.36111Q569.41876 150.75174 569.6219 151.11111L568.5125 151.11111Q568.35626 150.78299 568.3094 150.34549ZM568.21564 147.98611Q567.6375 148.22049 566.4969 148.39236Q565.84064 148.48611 565.575 148.61111Q565.3094 148.72049 565.15314 148.93924Q565.0125 149.15799 565.0125 149.43924Q565.0125 149.86111 565.325 150.14236Q565.65314 150.42361 566.2625 150.42361Q566.8719 150.42361 567.34064 150.15799Q567.825 149.89236 568.04376 149.42361Q568.21564 149.06424 568.21564 148.37674L568.21564 147.98611ZM571.2469 151.11111L571.2469 144.89236L572.1844 144.89236L572.1844 145.76736Q572.48126 145.29861 572.96564 145.03299Q573.45 144.75174 574.075 144.75174Q574.7625 144.75174 575.2 145.03299Q575.65314 145.31424 575.825 145.82986Q576.575 144.75174 577.7469 144.75174Q578.6844 144.75174 579.16876 145.26736Q579.66876 145.76736 579.66876 146.84549L579.66876 151.11111L578.6219 151.11111L578.6219 147.18924Q578.6219 146.56424 578.5125 146.28299Q578.41876 146.00174 578.15314 145.82986Q577.8875 145.65799 577.5125 145.65799Q576.85626 145.65799 576.41876 146.09549Q575.9969 146.53299 575.9969 147.50174L575.9969 151.11111L574.9344 151.11111L574.9344 147.06424Q574.9344 146.36111 574.66876 146.01736Q574.41876 145.65799 573.84064 145.65799Q573.3875 145.65799 573.0125 145.89236Q572.6375 146.12674 572.46564 146.57986Q572.29376 147.03299 572.29376 147.87674L572.29376 151.11111L571.2469 151.11111Z" fill-rule="nonzero"/><path fill="#7a94ab" d="M550.91876 168.11111L549.8719 168.11111L549.8719 161.39236Q549.48126 161.75174 548.85626 162.12674Q548.2469 162.48611 547.7625 162.65799L547.7625 161.64236Q548.6375 161.22049 549.29376 160.64236Q549.96564 160.04861 550.2469 159.48611L550.91876 159.48611L550.91876 168.11111ZM553.95 165.86111L555.0594 165.76736Q555.1844 166.57986 555.6219 166.98611Q556.075 167.39236 556.71564 167.39236Q557.46564 167.39236 557.9969 166.81424Q558.52814 166.23611 558.52814 165.29861Q558.52814 164.39236 558.0125 163.87674Q557.5125 163.34549 556.6844 163.34549Q556.1844 163.34549 555.7625 163.57986Q555.35626 163.81424 555.1219 164.17361L554.1375 164.04861L554.96564 159.64236L559.2469 159.64236L559.2469 160.64236L555.8094 160.64236L555.35626 162.95486Q556.1219 162.40799 556.96564 162.40799Q558.09064 162.40799 558.85626 163.18924Q559.6375 163.97049 559.6375 165.20486Q559.6375 166.36111 558.96564 167.22049Q558.1375 168.25174 556.71564 168.25174Q555.54376 168.25174 554.79376 167.59549Q554.0594 166.93924 553.95 165.86111ZM561.5125 168.11111L561.5125 166.90799L562.71564 166.90799L562.71564 168.11111Q562.71564 168.76736 562.48126 169.17361Q562.2469 169.59549 561.7469 169.81424L561.45 169.36111Q561.77814 169.22049 561.9344 168.92361Q562.09064 168.64236 562.1219 168.11111L561.5125 168.11111ZM563.95 163.87674Q563.95 162.34549 564.2625 161.42361Q564.575 160.48611 565.1844 159.98611Q565.8094 159.48611 566.7469 159.48611Q567.4344 159.48611 567.95 159.76736Q568.48126 160.04861 568.825 160.57986Q569.16876 161.09549 569.35626 161.84549Q569.54376 162.59549 569.54376 163.87674Q569.54376 165.39236 569.23126 166.31424Q568.9344 167.23611 568.3094 167.75174Q567.7 168.25174 566.7469 168.25174Q565.5125 168.25174 564.79376 167.36111Q563.95 166.29861 563.95 163.87674ZM565.02814 163.87674Q565.02814 165.98611 565.52814 166.68924Q566.02814 167.39236 566.7469 167.39236Q567.48126 167.39236 567.96564 166.68924Q568.46564 165.98611 568.46564 163.87674Q568.46564 161.75174 567.96564 161.06424Q567.48126 160.36111 566.73126 160.36111Q566.0125 160.36111 565.575 160.97049Q565.02814 161.75174 565.02814 163.87674ZM571.15314 161.57986Q571.15314 160.65799 571.60626 160.01736Q572.075 159.37674 572.95 159.37674Q573.7625 159.37674 574.29376 159.95486Q574.825 160.53299 574.825 161.64236Q574.825 162.73611 574.27814 163.32986Q573.7469 163.90799 572.96564 163.90799Q572.1844 163.90799 571.66876 163.32986Q571.15314 162.75174 571.15314 161.57986ZM572.98126 160.09549Q572.59064 160.09549 572.325 160.43924Q572.075 160.78299 572.075 161.68924Q572.075 162.51736 572.325 162.86111Q572.59064 163.18924 572.98126 163.18924Q573.3875 163.18924 573.6375 162.84549Q573.90314 162.50174 573.90314 161.61111Q573.90314 160.76736 573.6375 160.43924Q573.3719 160.09549 572.98126 160.09549ZM572.98126 168.42361L577.6844 159.37674L578.54376 159.37674L573.85626 168.42361L572.98126 168.42361ZM576.7 166.09549Q576.7 165.17361 577.15314 164.53299Q577.6219 163.89236 578.5125 163.89236Q579.325 163.89236 579.85626 164.47049Q580.3875 165.03299 580.3875 166.15799Q580.3875 167.25174 579.84064 167.84549Q579.3094 168.42361 578.5125 168.42361Q577.7469 168.42361 577.21564 167.84549Q576.7 167.26736 576.7 166.09549ZM578.54376 164.61111Q578.1375 164.61111 577.8719 164.95486Q577.6219 165.29861 577.6219 166.20486Q577.6219 167.01736 577.8875 167.36111Q578.15314 167.70486 578.54376 167.70486Q578.9344 167.70486 579.2 167.36111Q579.46564 167.01736 579.46564 166.11111Q579.46564 165.28299 579.2 164.95486Q578.9344 164.61111 578.54376 164.61111Z" fill-rule="nonzero"/><path stroke="#aabbca" stroke-width="1.0" stroke-linecap="butt" d="M581.45 155.61111L472.95 155.61111L456.64984 155.61111" fill-rule="nonzero"/><path fill="#7a94ab" d="M458.64984 155.61111C458.64984 154.50655 457.7544 153.61111 456.64984 153.61111C455.54526 153.61111 454.64984 154.50655 454.64984 155.61111C454.64984 156.7157 455.54526 157.61111 456.64984 157.61111C457.7544 157.61111 458.64984 156.7157 458.64984 155.61111" fill-rule="nonzero"/><path fill="#ffffff" d="M542.4344 218.88158L545.73126 210.28783L546.95 210.28783L550.46564 218.88158L549.1844 218.88158L548.16876 216.2722L544.59064 216.2722L543.6375 218.88158L542.4344 218.88158ZM544.91876 215.35033L547.825 215.35033L546.9344 212.97533Q546.5125 211.8972 546.325 211.19408Q546.15314 212.0222 545.85626 212.8347L544.91876 215.35033ZM550.2469 211.50658L550.2469 210.28783L551.3094 210.28783L551.3094 211.50658L550.2469 211.50658ZM550.2469 218.88158L550.2469 212.66283L551.3094 212.66283L551.3094 218.88158L550.2469 218.88158ZM553.23126 218.88158L553.23126 212.66283L554.1844 212.66283L554.1844 213.60033Q554.54376 212.94408 554.84064 212.74095Q555.15314 212.5222 555.52814 212.5222Q556.0594 212.5222 556.60626 212.85033L556.2469 213.8347Q555.85626 213.60033 555.48126 213.60033Q555.1219 213.60033 554.84064 213.81908Q554.575 214.0222 554.46564 214.3972Q554.27814 214.9597 554.27814 215.61595L554.27814 218.88158L553.23126 218.88158ZM561.27814 218.88158L561.27814 218.10033Q560.6844 219.0222 559.54376 219.0222Q558.79376 219.0222 558.16876 218.61595Q557.54376 218.19408 557.2 217.4597Q556.85626 216.72533 556.85626 215.7722Q556.85626 214.85033 557.16876 214.0847Q557.48126 213.31908 558.10626 212.92845Q558.73126 212.5222 559.4969 212.5222Q560.0594 212.5222 560.4969 212.75658Q560.9344 212.99095 561.21564 213.36595L561.21564 210.28783L562.2625 210.28783L562.2625 218.88158L561.27814 218.88158ZM557.95 215.7722Q557.95 216.97533 558.45 217.56908Q558.95 218.1472 559.6375 218.1472Q560.325 218.1472 560.8094 217.5847Q561.29376 217.0222 561.29376 215.86595Q561.29376 214.5847 560.79376 213.99095Q560.3094 213.3972 559.59064 213.3972Q558.8875 213.3972 558.41876 213.97533Q557.95 214.53783 557.95 215.7722ZM564.23126 218.88158L564.23126 212.66283L565.1844 212.66283L565.1844 213.60033Q565.54376 212.94408 565.84064 212.74095Q566.15314 212.5222 566.52814 212.5222Q567.0594 212.5222 567.60626 212.85033L567.2469 213.8347Q566.85626 213.60033 566.48126 213.60033Q566.1219 213.60033 565.84064 213.81908Q565.575 214.0222 565.46564 214.3972Q565.27814 214.9597 565.27814 215.61595L565.27814 218.88158L564.23126 218.88158ZM567.85626 215.7722Q567.85626 214.03783 568.8094 213.2097Q569.60626 212.5222 570.7625 212.5222Q572.04376 212.5222 572.85626 213.36595Q573.6844 214.19408 573.6844 215.67845Q573.6844 216.88158 573.325 217.56908Q572.96564 218.25658 572.2625 218.6472Q571.575 219.0222 570.7625 219.0222Q569.46564 219.0222 568.65314 218.19408Q567.85626 217.35033 567.85626 215.7722ZM568.9344 215.7722Q568.9344 216.9597 569.45 217.55345Q569.98126 218.1472 570.7625 218.1472Q571.5594 218.1472 572.075 217.55345Q572.59064 216.9597 572.59064 215.74095Q572.59064 214.5847 572.0594 213.99095Q571.54376 213.3972 570.7625 213.3972Q569.98126 213.3972 569.45 213.99095Q568.9344 214.56908 568.9344 215.7722ZM575.2469 221.2722L575.2469 212.66283L576.2 212.66283L576.2 213.4597Q576.54376 212.99095 576.96564 212.75658Q577.40314 212.5222 578.0125 212.5222Q578.8094 212.5222 579.41876 212.92845Q580.02814 213.3347 580.325 214.0847Q580.6375 214.8347 580.6375 215.72533Q580.6375 216.67845 580.29376 217.44408Q579.96564 218.2097 579.3094 218.61595Q578.65314 219.0222 577.9344 219.0222Q577.40314 219.0222 576.98126 218.80345Q576.5594 218.56908 576.29376 218.24095L576.29376 221.2722L575.2469 221.2722ZM576.2 215.80345Q576.2 217.00658 576.6844 217.5847Q577.16876 218.1472 577.85626 218.1472Q578.5594 218.1472 579.0594 217.55345Q579.5594 216.9597 579.5594 215.7097Q579.5594 214.5222 579.075 213.94408Q578.59064 213.35033 577.90314 213.35033Q577.23126 213.35033 576.71564 213.97533Q576.2 214.60033 576.2 215.80345Z" fill-rule="nonzero"/><path fill="#7a94ab" d="M553.95 233.63158L555.0594 233.53783Q555.1844 234.35033 555.6219 234.75658Q556.075 235.16283 556.71564 235.16283Q557.46564 235.16283 557.9969 234.5847Q558.52814 234.00658 558.52814 233.06908Q558.52814 232.16283 558.0125 231.6472Q557.5125 231.11595 556.6844 231.11595Q556.1844 231.11595 555.7625 231.35033Q555.35626 231.5847 555.1219 231.94408L554.1375 231.81908L554.96564 227.41283L559.2469 227.41283L559.2469 228.41283L555.8094 228.41283L555.35626 230.72533Q556.1219 230.17845 556.96564 230.17845Q558.09064 230.17845 558.85626 230.9597Q559.6375 231.74095 559.6375 232.97533Q559.6375 234.13158 558.96564 234.99095Q558.1375 236.0222 556.71564 236.0222Q555.54376 236.0222 554.79376 235.36595Q554.0594 234.7097 553.95 233.63158ZM561.5125 235.88158L561.5125 234.67845L562.71564 234.67845L562.71564 235.88158Q562.71564 236.53783 562.48126 236.94408Q562.2469 237.36595 561.7469 237.5847L561.45 237.13158Q561.77814 236.99095 561.9344 236.69408Q562.09064 236.41283 562.1219 235.88158L561.5125 235.88158ZM563.95 231.6472Q563.95 230.11595 564.2625 229.19408Q564.575 228.25658 565.1844 227.75658Q565.8094 227.25658 566.7469 227.25658Q567.4344 227.25658 567.95 227.53783Q568.48126 227.81908 568.825 228.35033Q569.16876 228.86595 569.35626 229.61595Q569.54376 230.36595 569.54376 231.6472Q569.54376 233.16283 569.23126 234.0847Q568.9344 235.00658 568.3094 235.5222Q567.7 236.0222 566.7469 236.0222Q565.5125 236.0222 564.79376 235.13158Q563.95 234.06908 563.95 231.6472ZM565.02814 231.6472Q565.02814 233.75658 565.52814 234.4597Q566.02814 235.16283 566.7469 235.16283Q567.48126 235.16283 567.96564 234.4597Q568.46564 233.75658 568.46564 231.6472Q568.46564 229.5222 567.96564 228.8347Q567.48126 228.13158 566.73126 228.13158Q566.0125 228.13158 565.575 228.74095Q565.02814 229.5222 565.02814 231.6472ZM571.15314 229.35033Q571.15314 228.42845 571.60626 227.78783Q572.075 227.1472 572.95 227.1472Q573.7625 227.1472 574.29376 227.72533Q574.825 228.30345 574.825 229.41283Q574.825 230.50658 574.27814 231.10033Q573.7469 231.67845 572.96564 231.67845Q572.1844 231.67845 571.66876 231.10033Q571.15314 230.5222 571.15314 229.35033ZM572.98126 227.86595Q572.59064 227.86595 572.325 228.2097Q572.075 228.55345 572.075 229.4597Q572.075 230.28783 572.325 230.63158Q572.59064 230.9597 572.98126 230.9597Q573.3875 230.9597 573.6375 230.61595Q573.90314 230.2722 573.90314 229.38158Q573.90314 228.53783 573.6375 228.2097Q573.3719 227.86595 572.98126 227.86595ZM572.98126 236.19408L577.6844 227.1472L578.54376 227.1472L573.85626 236.19408L572.98126 236.19408ZM576.7 233.86595Q576.7 232.94408 577.15314 232.30345Q577.6219 231.66283 578.5125 231.66283Q579.325 231.66283 579.85626 232.24095Q580.3875 232.80345 580.3875 233.92845Q580.3875 235.0222 579.84064 235.61595Q579.3094 236.19408 578.5125 236.19408Q577.7469 236.19408 577.21564 235.61595Q576.7 235.03783 576.7 233.86595ZM578.54376 232.38158Q578.1375 232.38158 577.8719 232.72533Q577.6219 233.06908 577.6219 233.97533Q577.6219 234.78783 577.8875 235.13158Q578.15314 235.47533 578.54376 235.47533Q578.9344 235.47533 579.2 235.13158Q579.46564 234.78783 579.46564 233.88158Q579.46564 233.05345 579.2 232.72533Q578.9344 232.38158 578.54376 232.38158Z" fill-rule="nonzero"/><path stroke="#aabbca" stroke-width="1.0" stroke-linecap="butt" d="M581.45 223.38158L472.95 223.38158L441.31586 223.38158" fill-rule="nonzero"/><path fill="#7a94ab" d="M443.31586 223.38158C443.31586 222.277 442.42044 221.38158 441.31586 221.38158C440.2113 221.38158 439.31586 222.277 439.31586 223.38158C439.31586 224.48615 440.2113 225.38158 441.31586 225.38158C442.42044 225.38158 443.31586 224.48615 443.31586 223.38158" fill-rule="nonzero"/></svg>